# Blender 4.0.2
# www.blender.org
mtllib anotherSpaceship2.mtl
o Cube
v -0.274950 6.116523 1.952358
v -0.274950 6.106942 1.465423
v -0.436207 1.960069 2.097611
v -0.436207 1.947991 1.483788
v 0.962700 6.116523 1.952358
v 0.962700 6.106942 1.465423
v 1.123957 1.960069 2.097611
v 1.123957 1.947991 1.483788
vn -0.9992 0.0387 -0.0008
vn -0.0000 -0.9998 0.0197
vn 0.9992 0.0387 -0.0008
vn -0.0000 0.9998 -0.0197
vn -0.0000 0.0349 0.9994
vn -0.0000 -0.0044 -1.0000
vt 0.375000 0.000000
vt 0.625000 0.000000
vt 0.625000 0.250000
vt 0.375000 0.250000
vt 0.625000 0.500000
vt 0.375000 0.500000
vt 0.625000 0.750000
vt 0.375000 0.750000
vt 0.625000 1.000000
vt 0.375000 1.000000
vt 0.125000 0.500000
vt 0.125000 0.750000
vt 0.875000 0.500000
vt 0.875000 0.750000
s 0
f 1/1/1 2/2/1 4/3/1 3/4/1
f 3/4/2 4/3/2 8/5/2 7/6/2
f 7/6/3 8/5/3 6/7/3 5/8/3
f 5/8/4 6/7/4 2/9/4 1/10/4
f 3/11/5 7/6/5 5/8/5 1/12/5
f 8/5/6 4/13/6 2/14/6 6/7/6
o Cube.002
v 2.168789 3.122001 1.906487
v 2.168789 3.126876 1.624042
v 2.168789 -1.078343 1.833998
v 2.168789 -1.073469 1.551553
v 2.713100 3.122001 1.906487
v 2.713100 3.126876 1.624042
v 2.713100 -1.078343 1.833998
v 2.713100 -1.073469 1.551553
v 0.531330 4.564488 1.914411
v 0.531330 4.570570 1.561987
v 2.726026 2.358130 1.876334
v 2.726026 2.364213 1.523910
v 0.919584 4.950576 1.921074
v 0.919584 4.956658 1.568650
v 3.114280 2.744218 1.882997
v 3.114280 2.750300 1.530573
v 1.861294 3.404056 1.912210
v 1.861294 3.408931 1.629765
v 1.861294 -0.841556 1.838939
v 1.861294 -0.836681 1.556494
v 2.405606 3.404056 1.912210
v 2.405606 3.408931 1.629765
v 2.405606 -0.841556 1.838939
v 2.405606 -0.836681 1.556494
v 1.559594 3.720494 1.925993
v 1.559594 3.725368 1.643547
v 1.559594 -0.314355 1.856359
v 1.559594 -0.309481 1.573914
v 2.103906 3.720494 1.925993
v 2.103906 3.725368 1.643547
v 2.103906 -0.314355 1.856359
v 2.103906 -0.309481 1.573914
v 1.285748 4.004670 1.930897
v 1.285748 4.009544 1.648452
v 1.285748 0.155863 1.864474
v 1.285748 0.160738 1.582029
v 1.830059 4.004670 1.930897
v 1.830059 4.009544 1.648452
v 1.830059 0.155863 1.864474
v 1.830059 0.160738 1.582029
v 0.772758 4.510831 1.939632
v 0.772758 4.515706 1.657187
v 0.772758 1.252519 1.883400
v 0.772758 1.257393 1.600955
v 1.317070 4.510831 1.939632
v 1.317070 4.515706 1.657187
v 1.317070 1.252519 1.883400
v 1.317070 1.257393 1.600955
vn -1.0000 -0.0000 -0.0000
vn -0.0000 -0.9999 -0.0173
vn 1.0000 -0.0000 -0.0000
vn -0.0000 0.9999 0.0173
vn -0.0000 -0.0173 0.9999
vn -0.0000 0.0173 -0.9999
vn -0.7090 -0.7051 -0.0122
vn 0.7052 -0.7089 -0.0122
vn 0.7090 0.7051 0.0122
vn -0.7052 0.7089 0.0122
vt 0.375000 0.000000
vt 0.625000 0.000000
vt 0.625000 0.250000
vt 0.375000 0.250000
vt 0.625000 0.500000
vt 0.375000 0.500000
vt 0.625000 0.750000
vt 0.375000 0.750000
vt 0.625000 1.000000
vt 0.375000 1.000000
vt 0.125000 0.500000
vt 0.125000 0.750000
vt 0.875000 0.500000
vt 0.875000 0.750000
s 0
f 9/15/7 10/16/7 12/17/7 11/18/7
f 11/18/8 12/17/8 16/19/8 15/20/8
f 15/20/9 16/19/9 14/21/9 13/22/9
f 13/22/10 14/21/10 10/23/10 9/24/10
f 11/25/11 15/20/11 13/22/11 9/26/11
f 16/19/12 12/27/12 10/28/12 14/21/12
f 17/15/13 18/16/13 20/17/13 19/18/13
f 19/18/14 20/17/14 24/19/14 23/20/14
f 23/20/15 24/19/15 22/21/15 21/22/15
f 21/22/16 22/21/16 18/23/16 17/24/16
f 19/25/11 23/20/11 21/22/11 17/26/11
f 24/19/12 20/27/12 18/28/12 22/21/12
f 25/15/7 26/16/7 28/17/7 27/18/7
f 27/18/8 28/17/8 32/19/8 31/20/8
f 31/20/9 32/19/9 30/21/9 29/22/9
f 29/22/10 30/21/10 26/23/10 25/24/10
f 27/25/11 31/20/11 29/22/11 25/26/11
f 32/19/12 28/27/12 26/28/12 30/21/12
f 33/15/7 34/16/7 36/17/7 35/18/7
f 35/18/8 36/17/8 40/19/8 39/20/8
f 39/20/9 40/19/9 38/21/9 37/22/9
f 37/22/10 38/21/10 34/23/10 33/24/10
f 35/25/11 39/20/11 37/22/11 33/26/11
f 40/19/12 36/27/12 34/28/12 38/21/12
f 41/15/7 42/16/7 44/17/7 43/18/7
f 43/18/8 44/17/8 48/19/8 47/20/8
f 47/20/9 48/19/9 46/21/9 45/22/9
f 45/22/10 46/21/10 42/23/10 41/24/10
f 43/25/11 47/20/11 45/22/11 41/26/11
f 48/19/12 44/27/12 42/28/12 46/21/12
f 49/15/7 50/16/7 52/17/7 51/18/7
f 51/18/8 52/17/8 56/19/8 55/20/8
f 55/20/9 56/19/9 54/21/9 53/22/9
f 53/22/10 54/21/10 50/23/10 49/24/10
f 51/25/11 55/20/11 53/22/11 49/26/11
f 56/19/12 52/27/12 50/28/12 54/21/12
o Cube.008
v -1.518227 3.152315 1.867094
v -1.518227 3.157189 1.584648
v -1.518227 -1.048030 1.794605
v -1.518227 -1.043155 1.512159
v -2.062538 3.152315 1.867094
v -2.062538 3.157189 1.584648
v -2.062538 -1.048030 1.794605
v -2.062538 -1.043155 1.512159
v 0.119233 4.594802 1.875018
v 0.119233 4.600883 1.522594
v -2.075463 2.388444 1.836941
v -2.075463 2.394526 1.484517
v -0.269022 4.980889 1.881681
v -0.269022 4.986971 1.529257
v -2.463718 2.774532 1.843604
v -2.463718 2.780614 1.491180
v -1.210732 3.434370 1.872816
v -1.210732 3.439244 1.590371
v -1.210732 -0.811242 1.799546
v -1.210732 -0.806367 1.517101
v -1.755043 3.434370 1.872816
v -1.755043 3.439244 1.590371
v -1.755043 -0.811242 1.799546
v -1.755043 -0.806367 1.517101
v -0.909032 3.750807 1.886599
v -0.909032 3.755682 1.604154
v -0.909032 -0.284042 1.816966
v -0.909032 -0.279167 1.534521
v -1.453343 3.750807 1.886599
v -1.453343 3.755682 1.604154
v -1.453343 -0.284042 1.816966
v -1.453343 -0.279167 1.534521
v -0.635185 4.034983 1.891503
v -0.635185 4.039858 1.609058
v -0.635185 0.186176 1.825081
v -0.635185 0.191051 1.542636
v -1.179497 4.034983 1.891503
v -1.179497 4.039858 1.609058
v -1.179497 0.186176 1.825081
v -1.179497 0.191051 1.542636
v -0.122196 4.541145 1.900239
v -0.122196 4.546019 1.617793
v -0.122196 1.282832 1.844007
v -0.122196 1.287707 1.561562
v -0.666507 4.541145 1.900239
v -0.666507 4.546019 1.617793
v -0.666507 1.282832 1.844007
v -0.666507 1.287707 1.561562
vn 1.0000 -0.0000 -0.0000
vn -0.0000 -0.9999 -0.0173
vn -1.0000 -0.0000 -0.0000
vn -0.0000 0.9999 0.0173
vn -0.0000 -0.0173 0.9999
vn -0.0000 0.0173 -0.9999
vn 0.7090 -0.7051 -0.0122
vn -0.7052 -0.7089 -0.0122
vn -0.7090 0.7051 0.0122
vn 0.7052 0.7089 0.0122
vt 0.375000 0.000000
vt 0.625000 0.000000
vt 0.625000 0.250000
vt 0.375000 0.250000
vt 0.625000 0.500000
vt 0.375000 0.500000
vt 0.625000 0.750000
vt 0.375000 0.750000
vt 0.625000 1.000000
vt 0.375000 1.000000
vt 0.125000 0.500000
vt 0.125000 0.750000
vt 0.875000 0.500000
vt 0.875000 0.750000
s 0
f 57/29/17 59/32/17 60/31/17 58/30/17
f 59/32/18 63/34/18 64/33/18 60/31/18
f 63/34/19 61/36/19 62/35/19 64/33/19
f 61/36/20 57/38/20 58/37/20 62/35/20
f 59/39/21 57/40/21 61/36/21 63/34/21
f 64/33/22 62/35/22 58/42/22 60/41/22
f 65/29/23 67/32/23 68/31/23 66/30/23
f 67/32/24 71/34/24 72/33/24 68/31/24
f 71/34/25 69/36/25 70/35/25 72/33/25
f 69/36/26 65/38/26 66/37/26 70/35/26
f 67/39/21 65/40/21 69/36/21 71/34/21
f 72/33/22 70/35/22 66/42/22 68/41/22
f 73/29/17 75/32/17 76/31/17 74/30/17
f 75/32/18 79/34/18 80/33/18 76/31/18
f 79/34/19 77/36/19 78/35/19 80/33/19
f 77/36/20 73/38/20 74/37/20 78/35/20
f 75/39/21 73/40/21 77/36/21 79/34/21
f 80/33/22 78/35/22 74/42/22 76/41/22
f 81/29/17 83/32/17 84/31/17 82/30/17
f 83/32/18 87/34/18 88/33/18 84/31/18
f 87/34/19 85/36/19 86/35/19 88/33/19
f 85/36/20 81/38/20 82/37/20 86/35/20
f 83/39/21 81/40/21 85/36/21 87/34/21
f 88/33/22 86/35/22 82/42/22 84/41/22
f 89/29/17 91/32/17 92/31/17 90/30/17
f 91/32/18 95/34/18 96/33/18 92/31/18
f 95/34/19 93/36/19 94/35/19 96/33/19
f 93/36/20 89/38/20 90/37/20 94/35/20
f 91/39/21 89/40/21 93/36/21 95/34/21
f 96/33/22 94/35/22 90/42/22 92/41/22
f 97/29/17 99/32/17 100/31/17 98/30/17
f 99/32/18 103/34/18 104/33/18 100/31/18
f 103/34/19 101/36/19 102/35/19 104/33/19
f 101/36/20 97/38/20 98/37/20 102/35/20
f 99/39/21 97/40/21 101/36/21 103/34/21
f 104/33/22 102/35/22 98/42/22 100/41/22
